<?xml version="1.0" standalone="no"?>
<!DOCTYPE svg PUBLIC "-//W3C//DTD SVG 20010904//EN"
 "http://www.w3.org/TR/2001/REC-SVG-20010904/DTD/svg10.dtd">
<svg version="1.0" xmlns="http://www.w3.org/2000/svg"
 width="1440.000000pt" height="932.000000pt" viewBox="0 0 1440.000000 932.000000"
 preserveAspectRatio="xMidYMid meet">
<metadata>
Created by potrace 1.16, written by Peter Selinger 2001-2019
</metadata>
<g transform="translate(0.000000,932.000000) scale(0.100000,-0.100000)"
fill="#000000" stroke="none">
<path d="M10046 6770 c3 -19 8 -42 11 -50 2 -8 7 -51 10 -95 2 -44 8 -96 13
-115 5 -19 12 -75 16 -125 7 -91 19 -143 31 -131 9 9 42 106 36 106 -3 0 -1 6
4 13 15 19 13 55 -3 61 -19 7 -18 23 1 23 8 0 15 -4 15 -9 0 -4 5 -8 10 -8 6
0 9 3 8 8 -1 4 1 17 6 30 7 20 -26 92 -91 197 -7 11 -16 28 -19 38 -5 15 -9
16 -15 5 -6 -9 -9 -6 -9 12 0 14 -7 36 -15 50 -14 25 -14 25 -9 -10z"/>
<path d="M10853 6716 c-18 -30 -33 -59 -33 -65 0 -6 -3 -11 -8 -11 -4 0 -18
-21 -32 -47 -17 -33 -21 -48 -12 -51 6 -2 12 -11 12 -20 -1 -15 -2 -15 -14 1
-17 22 -26 22 -26 0 0 -9 -6 -24 -14 -32 -19 -21 -33 -77 -17 -67 6 4 18 22
25 39 12 26 15 28 15 11 1 -24 -32 -66 -49 -62 -6 2 -22 -15 -35 -37 -14 -22
-29 -48 -36 -59 -6 -10 18 2 54 28 70 50 93 52 103 7 3 -14 8 -35 12 -46 5
-18 6 -18 13 5 5 17 8 5 9 -40 2 -90 15 -50 24 70 3 52 8 106 10 120 15 87 27
213 22 226 -3 9 -1 24 5 35 5 11 9 27 7 35 -2 8 -17 -9 -35 -40z"/>
<path d="M11466 6203 c-3 -4 -12 -8 -19 -9 -23 -4 -78 -31 -78 -37 2 -18 0
-21 -7 -9 -9 14 -55 1 -147 -42 -27 -13 -61 -27 -75 -29 -44 -10 -100 -32
-100 -39 0 -5 29 -8 65 -8 l65 0 0 -35 c0 -22 6 -38 15 -41 8 -4 12 -10 9 -15
-11 -18 7 -8 40 22 19 16 42 36 52 44 11 8 14 14 7 15 -7 0 -13 8 -13 18 0 21
46 69 57 59 3 -4 0 -13 -8 -20 -8 -6 -21 -20 -28 -29 -11 -15 -11 -18 1 -18 8
0 41 25 74 56 32 31 69 63 82 71 12 8 22 21 22 28 0 7 6 16 13 18 8 4 6 6 -4
6 -9 1 -19 -2 -23 -6z"/>
<path d="M11218 5550 c12 -5 22 -14 22 -19 0 -5 20 -21 45 -35 25 -15 45 -31
45 -37 0 -11 -29 -41 -80 -82 -24 -19 -29 -26 -15 -23 11 3 47 8 80 11 33 3
83 10 110 15 28 5 108 16 179 26 83 11 122 20 110 25 -10 4 -73 19 -139 34
-66 14 -147 33 -180 41 -33 8 -70 15 -82 15 -13 -1 -23 4 -23 10 0 5 -5 7 -10
4 -6 -4 -22 0 -35 9 -13 9 -30 16 -37 15 -7 0 -3 -4 10 -9z"/>
<path d="M9430 5480 c-10 -6 -11 -10 -2 -10 6 0 12 -4 12 -9 0 -5 -21 -7 -47
-5 -44 4 -44 1 -4 -12 11 -4 10 -7 -4 -18 -16 -12 -15 -13 11 -23 16 -6 70
-16 119 -23 50 -6 114 -15 144 -21 55 -9 79 -6 42 6 -12 3 -21 13 -21 21 0 8
-5 14 -11 14 -5 0 -7 -4 -4 -10 3 -6 -5 -10 -19 -10 -14 0 -28 5 -31 10 -3 6
4 10 17 10 l23 1 -21 17 c-11 10 -24 24 -27 32 -5 11 -6 9 -6 -5 2 -39 -1 -45
-23 -45 -15 0 -32 13 -47 35 -14 21 -32 35 -45 35 -17 0 -18 2 -6 10 12 8 10
10 -10 10 -14 0 -32 -5 -40 -10z"/>
<path d="M4333 5322 c-63 -22 -115 -61 -154 -115 -38 -53 -37 -75 4 -92 19 -8
40 -21 47 -31 13 -14 10 -20 -19 -46 -20 -18 -41 -28 -54 -26 -18 2 -23 11
-27 53 -5 46 -7 50 -36 56 -18 3 -44 18 -60 32 -19 18 -32 23 -40 16 -6 -5
-19 -7 -28 -3 -56 22 -116 -29 -135 -115 -11 -49 -23 -61 -63 -61 -20 0 -28
-5 -28 -18 0 -9 -13 -23 -30 -30 -23 -11 -30 -20 -30 -42 0 -38 20 -80 37 -80
7 0 13 -6 13 -12 1 -17 39 -66 40 -50 0 25 20 11 20 -14 0 -33 37 -94 56 -94
8 0 14 -4 14 -10 0 -5 7 -10 15 -10 8 0 21 -13 30 -29 23 -46 67 -71 152 -86
43 -7 86 -17 96 -20 19 -8 77 12 77 26 0 5 -16 30 -35 55 -50 66 -67 111 -62
163 4 34 1 47 -15 63 -14 14 -18 27 -13 45 24 96 119 111 114 18 -2 -50 0 -50
31 -3 44 66 65 81 131 95 58 12 151 60 196 102 12 12 24 21 26 21 3 0 16 -17
29 -37 32 -48 100 -119 157 -163 105 -83 100 -77 91 -116 -11 -47 -24 -61 -44
-44 -18 14 -66 6 -66 -11 0 -6 7 -9 15 -5 21 8 45 -3 45 -20 0 -8 -7 -26 -16
-40 -15 -23 -15 -26 0 -43 21 -24 12 -67 -18 -83 -11 -6 -39 -30 -62 -53 -55
-57 -122 -79 -223 -73 -51 3 -90 12 -118 26 -23 12 -45 22 -48 22 -3 0 9 -27
26 -60 33 -64 34 -65 132 -75 37 -4 72 -16 95 -31 19 -14 43 -23 52 -22 9 2
25 -3 34 -11 15 -12 21 -12 49 1 18 8 52 14 77 13 25 -1 52 2 61 6 23 12 31
60 12 81 -21 23 -8 54 27 66 38 14 54 45 42 82 -6 16 -8 31 -5 33 2 3 -5 8
-16 12 -28 9 -28 59 0 105 16 26 20 45 16 78 -4 37 0 51 25 89 68 100 39 260
-66 367 -103 105 -183 145 -306 152 -41 2 -106 7 -145 9 -52 4 -83 0 -122 -13z"/>
<path d="M10933 5328 c3 -9 2 -29 -3 -45 l-8 -28 -2 35 c-2 22 -7 4 -15 -50
-9 -63 -13 -74 -14 -42 0 23 -5 42 -10 42 -5 0 -12 8 -14 18 -4 15 -5 15 -6 0
-1 -13 -9 -9 -35 18 -26 27 -35 31 -39 19 -9 -23 -26 -18 -37 10 -15 40 -30
29 -30 -24 0 -86 -55 -219 -91 -221 -4 0 -10 -11 -13 -25 -7 -28 -27 -32 -50
-10 -9 9 -33 15 -60 15 -45 0 -86 24 -86 50 0 6 -4 10 -10 10 -5 0 -10 -11
-10 -24 0 -13 -6 -29 -14 -35 -30 -25 -111 6 -146 54 -8 11 -27 32 -43 48 -18
16 -27 33 -23 43 3 8 2 12 -4 9 -17 -10 -11 -50 10 -72 19 -21 19 -22 0 -20
-13 1 -25 15 -35 39 -11 27 -21 38 -36 38 -19 0 -21 -4 -16 -30 6 -25 3 -31
-16 -35 -13 -4 -35 -1 -50 4 -23 9 -27 8 -27 -8 0 -31 65 -141 110 -187 61
-62 109 -92 191 -121 66 -23 85 -25 186 -21 105 4 116 7 187 42 171 84 276
253 276 439 0 29 -5 59 -11 67 -9 13 -10 13 -6 -2z"/>
<path d="M2397 5176 c-8 -20 -9 -2390 -1 -2420 l6 -26 189 0 189 0 0 228 0
227 96 110 c173 198 171 196 182 182 10 -12 112 -177 304 -492 61 -99 121
-197 134 -217 l24 -38 109 0 110 0 6 53 c3 28 7 68 10 87 4 40 -20 230 -35
274 -10 29 -48 92 -226 371 -56 88 -116 186 -134 218 l-32 58 83 92 c46 51
100 110 121 132 20 22 45 49 55 61 10 12 58 65 108 118 49 54 104 123 122 153
19 30 47 69 63 85 17 16 30 31 30 32 0 9 -412 6 -429 -3 -11 -6 -109 -111
-218 -233 -233 -261 -205 -230 -351 -395 -64 -72 -120 -129 -124 -127 -4 3 -8
338 -8 745 l0 739 -189 0 c-152 0 -190 -3 -194 -14z"/>
<path d="M11295 4878 c-3 -7 -6 -105 -7 -218 l-3 -205 -122 -3 -123 -3 0 -154
0 -155 119 0 c99 0 120 -3 125 -16 3 -9 6 -235 6 -503 0 -269 4 -510 9 -537
16 -81 50 -161 93 -215 46 -58 139 -122 212 -146 68 -21 263 -29 336 -13 104
23 280 111 280 141 0 12 -113 220 -142 261 l-19 27 -51 -32 c-42 -27 -63 -32
-124 -35 -100 -5 -153 19 -186 86 -23 47 -23 50 -26 503 -3 378 -1 458 11 467
9 8 85 12 228 14 l214 3 0 65 c-1 36 -2 104 -3 153 l-2 87 -219 0 -218 0 -7
60 c-4 33 -7 122 -6 197 1 76 1 148 0 161 l0 22 -185 0 c-139 0 -187 -3 -190
-12z"/>
<path d="M5433 4486 c-360 -69 -604 -329 -679 -723 -23 -122 -15 -313 20 -443
81 -311 323 -541 636 -607 118 -24 346 -24 455 1 96 22 192 59 260 100 63 37
152 106 184 139 23 26 23 26 5 50 -33 43 -138 171 -160 196 l-22 23 -74 -56
c-141 -106 -272 -144 -451 -133 -171 11 -306 80 -387 198 -46 67 -88 184 -76
214 5 13 80 15 637 15 l631 0 -5 153 c-11 304 -85 505 -248 668 -63 62 -95 85
-180 127 -57 28 -133 59 -169 67 -93 22 -289 28 -377 11z m270 -301 c190 -40
317 -195 329 -400 l3 -50 -445 0 -445 0 -3 24 c-9 64 59 218 131 297 74 82
207 139 327 143 19 0 66 -6 103 -14z"/>
<path d="M9153 4475 c-134 -37 -279 -131 -348 -224 -16 -22 -33 -41 -37 -41
-5 0 -8 53 -8 119 0 89 -3 121 -14 130 -9 8 -69 11 -192 9 l-179 -3 -3 -868
-2 -867 192 2 193 3 6 500 c5 470 6 504 26 566 25 79 46 122 86 173 73 92 233
153 377 143 185 -13 286 -102 325 -285 13 -64 22 -410 24 -964 l1 -138 190 0
189 0 7 35 c3 19 4 281 1 582 -5 592 -10 644 -63 785 -68 181 -202 303 -379
348 -115 28 -281 27 -392 -5z"/>
<path d="M7115 4480 c-99 -16 -215 -49 -300 -86 -90 -40 -201 -100 -210 -114
-6 -10 125 -280 137 -280 4 0 35 16 69 36 216 127 550 149 710 48 70 -44 118
-141 122 -249 l2 -60 -305 -6 c-252 -6 -321 -11 -398 -27 -221 -49 -359 -167
-418 -360 -22 -72 -19 -255 6 -333 39 -127 126 -226 255 -289 146 -71 348 -89
510 -46 123 33 270 124 321 198 35 52 44 37 44 -77 l0 -105 180 0 180 0 0 609
c0 680 -2 710 -65 838 -68 138 -211 245 -386 288 -77 19 -365 28 -454 15z
m530 -990 c10 -16 -12 -191 -31 -250 -25 -75 -116 -167 -196 -197 -89 -34
-205 -47 -294 -34 -161 24 -234 97 -234 237 0 144 78 215 270 247 54 9 479 7
485 -3z"/>
<path d="M10302 3695 l3 -760 38 -58 c41 -59 65 -80 132 -113 33 -16 67 -19
203 -22 l163 -4 -3 739 c-3 787 -2 764 -52 838 -27 39 -63 75 -76 75 -5 0 -10
4 -10 9 0 5 -15 15 -32 22 -18 7 -36 14 -39 16 -4 2 -9 -6 -12 -17 -4 -14 -12
-21 -24 -18 -24 4 -29 35 -6 41 10 2 -51 6 -135 8 l-153 4 3 -760z"/>
<path d="M3755 3570 c-6 -45 9 -186 45 -415 31 -199 32 -241 15 -435 -9 -102
-16 -241 -16 -310 1 -69 0 -138 -2 -155 -2 -34 -37 -19 288 -120 236 -73 327
-90 404 -77 48 8 71 18 89 37 l24 26 -34 32 c-54 51 -75 88 -72 127 l2 35 -10
-35 c-6 -19 -12 -41 -14 -47 -2 -7 -8 -13 -15 -13 -7 0 -8 7 -4 18 30 72 40
183 26 284 -11 74 -63 288 -121 498 -11 41 -23 104 -27 140 -5 65 -24 110 -45
110 -8 0 -9 -28 -5 -99 l7 -99 -50 -11 c-28 -6 -60 -11 -72 -11 -13 0 -18 -5
-15 -14 6 -14 12 -111 24 -361 10 -238 12 -220 -19 -223 -19 -2 -28 -9 -28
-21 0 -25 36 -33 56 -14 14 14 22 13 80 -12 35 -15 66 -30 68 -34 2 -3 -1 -20
-6 -38 -7 -27 -15 -33 -45 -39 -39 -7 -121 14 -179 47 -29 16 -78 31 -176 53
-16 4 -28 10 -28 15 0 12 42 29 92 36 l45 7 7 111 c3 62 8 193 12 292 l6 180
-67 2 c-101 3 -110 12 -124 130 -14 120 -41 399 -41 423 0 13 -10 19 -34 22
-34 4 -35 3 -41 -42z m639 -837 c7 -24 32 -151 46 -236 12 -74 5 -152 -15
-181 -11 -14 -17 -15 -34 -6 -12 6 -21 20 -21 31 0 11 -3 18 -7 16 -5 -3 -5
68 -2 156 4 89 7 179 8 200 1 38 16 50 25 20z"/>
<path d="M4569 3387 c-1 -4 -2 -31 -3 -59 -1 -47 3 -59 35 -102 130 -172 383
-816 431 -1095 11 -66 11 -73 -8 -97 -13 -18 -37 -32 -69 -40 -145 -39 -183
-56 -201 -89 -17 -32 -17 -34 6 -89 12 -31 26 -58 30 -61 3 -2 36 0 71 5 126
18 237 30 414 46 99 9 184 20 189 24 15 15 8 75 -16 125 -22 47 -26 50 -63 53
-22 1 -71 7 -108 13 -57 9 -70 15 -79 35 -6 13 -15 21 -20 18 -11 -7 20 -43
47 -55 17 -6 17 -8 3 -8 -23 -1 -59 35 -63 62 -5 44 -18 82 -32 99 -8 9 -34
81 -58 160 -38 126 -108 325 -135 383 -5 11 -18 40 -28 65 -81 189 -150 328
-237 475 -48 81 -103 149 -106 132z"/>
<path d="M3793 2170 c-12 -5 -32 -28 -45 -52 -32 -61 -32 -185 -1 -245 43 -80
104 -102 180 -66 29 13 44 14 91 6 35 -6 68 -7 89 -1 25 7 42 5 68 -8 30 -14
57 -16 168 -11 209 8 297 49 297 137 l0 38 -47 -16 c-37 -12 -92 -16 -233 -16
-205 -1 -260 6 -260 32 0 13 -2 14 -9 3 -15 -23 -63 0 -74 35 -14 48 -41 108
-57 127 -35 42 -112 59 -167 37z"/>
</g>
</svg>
