<svg xmlns="http://www.w3.org/2000/svg" width="1600" height="680" viewBox="0 0 1600 680" version="1.1"><path d="M 1009.209 255.995 C 1005.326 256.903, 1001.733 259.863, 1002.402 261.604 C 1002.661 262.281, 1002.169 263.105, 1001.308 263.435 C 999.047 264.303, 1000.211 271.532, 1003.108 274.615 C 1005.900 277.587, 1011.889 279.496, 1015.544 278.578 C 1017.043 278.202, 1019.784 276.335, 1021.635 274.429 C 1024.289 271.696, 1025 270.139, 1025 267.059 C 1025 259.321, 1017.492 254.060, 1009.209 255.995 M 486.242 320.250 L 486.500 380.500 496 380.500 L 505.500 380.500 505.780 368.951 L 506.060 357.403 513.668 350.512 C 521.069 343.809, 521.319 343.676, 522.888 345.598 C 523.774 346.684, 529.412 353.632, 535.415 361.037 C 541.418 368.441, 547.713 375.982, 549.404 377.794 L 552.477 381.088 563.780 380.872 C 572.799 380.700, 574.978 380.384, 574.564 379.306 C 574.279 378.563, 565.710 367.419, 555.523 354.542 C 545.335 341.665, 537 330.767, 537 330.325 C 537 329.882, 544.983 321.528, 554.740 311.760 L 572.479 294 559.990 294.048 L 547.500 294.095 527 313.180 L 506.500 332.265 506.238 296.132 L 505.975 260 495.980 260 L 485.984 260 486.242 320.250 M 601.242 320.250 L 601.500 380.500 611 380.500 L 620.500 380.500 620.758 320.250 L 621.016 260 611 260 L 600.984 260 601.242 320.250 M 1063.785 285.178 L 1063.500 295.355 1056.750 295.109 L 1050 294.862 1050 302.431 L 1050 310 1057 310 L 1064 310 1064 334.462 C 1064 356.482, 1064.200 359.459, 1066.001 364.274 C 1069.779 374.371, 1077.910 379.903, 1090.275 380.788 C 1097.546 381.308, 1108.972 378.944, 1111.001 376.499 C 1112.451 374.752, 1107.939 363.410, 1105.912 363.707 C 1105.136 363.820, 1102.451 364.400, 1099.947 364.995 C 1094.174 366.368, 1088.569 364.682, 1085.596 360.679 C 1083.627 358.030, 1083.482 356.403, 1083.199 333.929 L 1082.899 310 1094.816 310 L 1106.732 310 1106.616 302.750 L 1106.500 295.500 1094.750 295.218 L 1083 294.937 1083 284.968 L 1083 275 1073.535 275 L 1064.070 275 1063.785 285.178 M 680.429 295.309 C 663.207 301.860, 653.388 315.349, 652.265 334 C 651.087 353.572, 659.391 368.224, 676.322 376.449 C 693.630 384.857, 718.540 382.668, 730.507 371.689 L 735.073 367.500 729.404 361.190 L 723.734 354.881 721.117 357.326 C 717.184 361.001, 712.724 362.929, 706.038 363.843 C 690.759 365.933, 679.292 360.602, 674.107 349 L 672.095 344.500 706.298 344 L 740.500 343.500 740.798 338.364 C 741.200 331.454, 738.650 321, 734.803 313.782 C 730.926 306.508, 724.569 300.706, 716 296.623 C 710.063 293.794, 708.505 293.503, 698 293.263 C 688.010 293.035, 685.703 293.303, 680.429 295.309 M 783 295.364 C 775.168 297.721, 767.593 301.231, 766.491 303.014 C 765.988 303.828, 771.803 316.017, 773.598 317.911 C 773.813 318.136, 774.843 317.547, 775.889 316.601 C 776.934 315.654, 780.875 313.792, 784.645 312.461 C 797.108 308.063, 811.803 309.560, 817.345 315.793 C 819.444 318.153, 821.891 324.448, 821.956 327.656 C 821.999 329.775, 821.671 329.820, 803.250 330.241 C 781.126 330.747, 777.095 331.799, 770.008 338.917 C 758.200 350.776, 761.706 369.678, 777.176 377.573 C 790.436 384.339, 810.642 382.299, 820.250 373.223 L 823 370.626 823 375.233 C 823 379.468, 823.222 379.883, 825.750 380.356 C 827.263 380.639, 831.425 380.787, 835 380.685 L 841.500 380.500 841.500 349 L 841.500 317.500 838.883 312 C 832.358 298.283, 821.892 292.956, 801.661 293.054 C 793.075 293.095, 788.770 293.628, 783 295.364 M 915.500 294.399 C 910.177 296.082, 905.910 298.364, 902.120 301.553 L 899 304.178 899 299.089 L 899 294 889.500 294 L 880 294 880 337.565 L 880 381.129 889.750 380.815 L 899.500 380.500 900 353.500 C 900.473 327.958, 900.621 326.274, 902.741 322.308 C 906.902 314.524, 913.789 310.798, 924.119 310.742 C 933.102 310.693, 938.411 313.590, 941.946 320.470 C 944.476 325.393, 944.503 325.705, 944.832 353.209 L 945.165 380.979 954.832 380.739 L 964.500 380.500 964.500 349.500 L 964.500 318.500 961.620 312.266 C 957.973 304.368, 951.295 298.002, 943.662 295.146 C 937.003 292.655, 922.252 292.263, 915.500 294.399 M 1003 337.112 L 1003 380 1012.500 380 L 1022 380 1022 336.970 L 1022 293.941 1012.500 294.083 L 1003 294.225 1003 337.112 M 688.340 310.372 C 680.405 312.973, 674.421 319.389, 672.599 327.250 L 671.962 330 696.481 330 C 723.516 330, 722.410 330.300, 719.652 323.718 C 717.662 318.969, 713.271 314.179, 708.833 311.915 C 703.784 309.339, 693.787 308.587, 688.340 310.372 M 793.091 344.070 C 784.913 345.702, 781.011 352.605, 784.330 359.566 C 786.714 364.566, 791.089 366.481, 800 366.427 C 808.567 366.375, 813.995 364.172, 818.375 358.967 C 821.481 355.275, 822.252 352.687, 821.820 347.405 L 821.500 343.500 809.500 343.345 C 802.900 343.260, 795.516 343.586, 793.091 344.070 M 485 411.481 C 485 411.745, 486.575 414.423, 488.500 417.433 C 490.786 421.006, 492 424.114, 492 426.393 C 492 428.312, 492.450 430.160, 493 430.500 C 493.589 430.864, 494.002 429.760, 494.004 427.809 C 494.006 425.989, 494.953 422.925, 496.109 421 C 497.265 419.075, 499.100 416.038, 500.187 414.250 C 501.274 412.462, 501.715 411, 501.167 411 C 500.620 411, 498.787 413.250, 497.095 416 C 495.403 418.750, 493.785 421, 493.500 421 C 493.215 421, 491.597 418.750, 489.905 416 C 487.306 411.776, 485 409.651, 485 411.481 M 511.901 414.106 C 508.048 418.230, 507.994 422.853, 511.750 427.019 C 519.160 435.239, 532.193 428.347, 529.070 417.860 C 527.717 413.319, 524.292 411, 518.936 411 C 515.601 411, 514.242 411.600, 511.901 414.106 M 540.014 417.250 C 540.032 425.713, 540.745 427.817, 544.200 429.603 C 547.852 431.492, 552.435 430.644, 554.499 427.698 C 556.228 425.230, 556.655 411, 555 411 C 554.422 411, 554 414.159, 554 418.477 C 554 425.343, 553.796 426.087, 551.507 427.587 C 548.223 429.739, 544.224 428.718, 542.965 425.407 C 542.434 424.012, 542 420.199, 542 416.935 C 542 413.645, 541.554 411, 541 411 C 540.439 411, 540.006 413.741, 540.014 417.250 M 569 421.059 C 569 427.510, 569.359 430.896, 570 430.500 C 570.550 430.160, 571 428.559, 571 426.941 C 571 424.288, 571.318 424.001, 574.250 424.007 C 576.839 424.012, 577.984 424.725, 579.879 427.507 C 581.187 429.428, 582.650 431, 583.129 431 C 584.453 431, 584.197 430.186, 581.892 427.068 L 579.784 424.216 581.892 422.108 C 584.548 419.452, 584.593 415.593, 582 413 C 580.485 411.485, 578.667 411, 574.500 411 L 569 411 569 421.059 M 608 420.441 C 608 429.476, 609.528 434.599, 610.185 427.769 C 610.490 424.606, 610.672 424.483, 615.807 423.967 C 620.989 423.446, 622.818 422.201, 623.103 419 C 623.622 413.184, 621.095 411, 613.845 411 L 608 411 608 420.441 M 634 420.441 C 634 425.656, 634.448 430.159, 635 430.500 C 635.595 430.868, 636 429.677, 636 427.559 C 636 424.182, 636.173 424, 639.381 424 C 642.082 424, 643.310 424.717, 645.482 427.566 C 646.978 429.527, 648.462 430.871, 648.780 430.553 C 649.098 430.235, 648.400 428.680, 647.230 427.097 C 645.122 424.247, 645.121 424.201, 647.051 422.454 C 648.230 421.387, 649 419.392, 649 417.402 C 649 412.952, 646.036 411, 639.277 411 L 634 411 634 420.441 M 662.077 413.589 C 655.970 418.727, 658.864 428.713, 666.975 430.495 C 670.470 431.262, 676.455 428.886, 677.920 426.150 C 678.514 425.040, 679 422.342, 679 420.155 C 679 414.920, 674.718 411, 669 411 C 666.321 411, 664.220 411.786, 662.077 413.589 M 705.077 413.589 C 702.591 415.681, 702 416.942, 702 420.155 C 702 425.227, 703.286 427.579, 707.151 429.578 C 710.759 431.444, 716.091 430.817, 718.150 428.286 C 719.342 426.819, 719.267 426.716, 717.500 427.398 C 716.400 427.823, 714.071 428.410, 712.323 428.704 C 705.305 429.884, 701.102 420.071, 706.467 415.031 C 708.622 413.007, 709.602 412.790, 714.217 413.314 C 718.998 413.858, 719.315 413.776, 717.559 412.457 C 714.420 410.101, 708.595 410.629, 705.077 413.589 M 729.823 419.389 C 729.361 431.389, 729.154 431, 736.014 431 C 739.242 431, 742.160 430.550, 742.500 430 C 742.884 429.379, 741.010 429, 737.559 429 L 732 429 732 420 C 732 415.050, 731.583 411, 731.073 411 C 730.564 411, 730.001 414.775, 729.823 419.389 M 752.214 420.750 L 752.500 430.500 759.250 430.796 C 763.262 430.971, 766 430.687, 766 430.096 C 766 429.548, 763.413 428.965, 760.250 428.800 L 754.500 428.500 754.500 425 C 754.500 421.525, 754.536 421.497, 759.500 421.060 L 764.500 420.620 759.500 420.060 C 754.725 419.525, 754.486 419.354, 754.187 416.250 L 753.873 413 759.378 413 C 762.405 413, 765.160 412.550, 765.500 412 C 765.890 411.369, 763.498 411, 759.023 411 L 751.928 411 752.214 420.750 M 778.475 420.392 C 773.568 430.892, 773.533 431, 775.052 431 C 775.631 431, 776.575 429.650, 777.150 428 C 778.137 425.168, 778.497 425, 783.572 425 C 788.625 425, 789.050 425.195, 790.636 428.250 C 791.563 430.038, 792.507 430.955, 792.732 430.289 C 793.273 428.687, 785.597 411.699, 784.108 411.203 C 783.456 410.985, 780.993 415.004, 778.475 420.392 M 803 420.441 C 803 425.656, 803.448 430.159, 804 430.500 C 804.633 430.891, 805 428.316, 805 423.476 C 805 419.272, 805.405 415.983, 805.900 416.167 C 806.396 416.350, 809.352 419.770, 812.470 423.766 C 815.588 427.762, 818.558 430.773, 819.070 430.457 C 820.282 429.708, 820.284 412.294, 819.072 411.544 C 817.729 410.715, 816.829 414.316, 817.016 419.768 C 817.105 422.371, 817.138 424.899, 817.089 425.386 C 817.040 425.873, 814.291 422.835, 810.979 418.636 C 807.668 414.436, 804.518 411, 803.979 411 C 803.409 411, 803 414.947, 803 420.441 M 832 421.059 C 832 427.510, 832.359 430.896, 833 430.500 C 833.552 430.159, 834 425.656, 834 420.441 C 834 414.814, 833.596 411, 833 411 C 832.400 411, 832 415.020, 832 421.059 M 846.667 411.667 C 845.659 412.674, 845.867 429.800, 846.895 430.435 C 848.238 431.265, 848.660 429.168, 848.542 422.250 C 848.483 418.813, 848.725 416, 849.079 416 C 849.433 416, 852.306 419.373, 855.464 423.496 C 858.622 427.618, 861.609 430.742, 862.103 430.437 C 863.319 429.685, 863.261 411, 862.042 411 C 861.515 411, 860.953 414.473, 860.792 418.719 L 860.500 426.437 854.500 418.765 C 848.416 410.985, 847.856 410.477, 846.667 411.667 M 877.077 413.589 C 874.543 415.721, 874 416.917, 874 420.366 C 874 425.575, 875.979 428.508, 880.503 430.001 C 883.146 430.873, 884.855 430.873, 887.500 430 C 890.709 428.941, 891 428.519, 891 424.922 C 891 422.765, 890.550 421, 890 421 C 889.450 421, 889 422.545, 889 424.433 C 889 428.361, 886.899 429.576, 881.979 428.495 C 875.951 427.171, 873.903 419.319, 878.467 415.031 C 880.622 413.007, 881.602 412.790, 886.217 413.314 C 890.998 413.858, 891.315 413.776, 889.559 412.457 C 886.420 410.101, 880.595 410.629, 877.077 413.589 M 916.667 411.667 C 915.635 412.698, 915.880 429.808, 916.935 430.460 C 917.450 430.778, 918.012 429.567, 918.185 427.769 C 918.489 424.613, 918.680 424.482, 923.725 423.975 C 929.495 423.394, 930.561 422.705, 931.486 418.957 C 931.925 417.175, 931.475 415.603, 929.984 413.707 C 928.152 411.377, 927.122 411, 922.594 411 C 919.701 411, 917.033 411.300, 916.667 411.667 M 943.524 418.655 C 939.804 426.707, 938.358 431, 939.366 431 C 939.686 431, 940.647 429.650, 941.500 428 C 942.932 425.231, 943.465 425, 948.428 425 C 953.532 425, 953.859 425.156, 954.876 428.075 C 955.466 429.766, 956.387 430.879, 956.924 430.547 C 958.074 429.836, 950.001 411.834, 948.275 411.258 C 947.636 411.045, 945.513 414.350, 943.524 418.655 M 967.425 412.334 C 966.508 414.726, 967.451 430.026, 968.500 429.757 C 969.050 429.615, 969.500 428.375, 969.500 427 C 969.500 424.967, 970.058 424.437, 972.487 424.161 C 974.926 423.884, 976.068 424.524, 978.722 427.661 C 982.055 431.601, 983.239 430.820, 980.431 426.534 C 978.971 424.307, 979.006 423.994, 980.931 422.069 C 983.553 419.447, 983.552 416.972, 980.927 413.635 C 979.141 411.363, 978.102 411, 973.396 411 C 969.769 411, 967.766 411.448, 967.425 412.334 M 991 412 C 991 412.550, 992.350 413, 994 413 L 997 413 997 421.441 C 997 432.878, 998.838 433.580, 999.211 422.285 L 999.500 413.500 1002.750 413.187 C 1009.007 412.583, 1005.930 411, 998.500 411 C 994.167 411, 991 411.422, 991 412 M 1015.607 412.582 C 1014.656 415.061, 1014.926 428.335, 1015.962 429.972 C 1017.303 432.093, 1017.888 430.035, 1018.226 422 L 1018.500 415.500 1024.461 423.179 C 1027.739 427.402, 1030.777 430.638, 1031.211 430.370 C 1032.354 429.663, 1032.192 411, 1031.042 411 C 1030.515 411, 1029.953 414.473, 1029.792 418.719 L 1029.500 426.437 1023.500 418.765 C 1020.200 414.545, 1017.211 411.071, 1016.857 411.046 C 1016.503 411.021, 1015.941 411.712, 1015.607 412.582 M 1044.214 420.750 L 1044.500 430.500 1051.250 430.796 C 1055.262 430.971, 1058 430.687, 1058 430.096 C 1058 429.548, 1055.412 428.965, 1052.250 428.800 L 1046.500 428.500 1046.500 425 L 1046.500 421.500 1052 420.944 L 1057.500 420.387 1052.061 419.944 C 1046.776 419.513, 1046.612 419.408, 1046.256 416.250 L 1045.889 413 1051.944 413 C 1055.315 413, 1058 412.557, 1058 412 C 1058 411.428, 1054.988 411, 1050.964 411 L 1043.928 411 1044.214 420.750 M 1069 420.441 C 1069 429.476, 1070.528 434.599, 1071.185 427.769 C 1071.455 424.970, 1071.929 424.451, 1074.487 424.161 C 1076.926 423.884, 1078.068 424.524, 1080.722 427.661 C 1082.834 430.158, 1083.975 430.931, 1083.985 429.872 C 1083.993 428.977, 1083.325 427.685, 1082.500 427 C 1080.871 425.648, 1080.460 423, 1081.879 423 C 1082.362 423, 1083.300 421.691, 1083.962 420.091 C 1086.269 414.522, 1082.435 411, 1074.066 411 L 1069 411 1069 420.441 M 1095.697 412.782 C 1092.389 416.438, 1094.508 420.061, 1100.918 421.707 C 1105.238 422.816, 1106.913 425.195, 1104.998 427.503 C 1103.604 429.182, 1099.565 429.201, 1095.750 427.545 C 1092.954 426.332, 1093.726 428.554, 1096.547 429.839 C 1101.947 432.300, 1108 430.006, 1108 425.500 C 1108 422.972, 1104.698 420, 1101.888 420 C 1099.227 420, 1095.792 416.705, 1096.508 414.840 C 1097.338 412.678, 1100.365 411.958, 1104.110 413.032 C 1106.323 413.666, 1107.027 413.577, 1106.738 412.699 C 1106.521 412.040, 1104.330 411.366, 1101.869 411.203 C 1098.502 410.980, 1096.974 411.371, 1095.697 412.782 M 667.500 412.781 C 661.199 414.101, 658.884 421.975, 663.455 426.545 C 668.511 431.602, 677.037 427.974, 676.968 420.795 C 676.917 415.455, 672.516 411.730, 667.500 412.781 M 513.073 415.635 C 510.736 418.605, 510.494 420.796, 512.110 424.343 C 514.239 429.014, 520.132 430.257, 524.365 426.927 C 527.727 424.283, 528.058 418.058, 525 415 C 521.942 411.942, 515.717 412.273, 513.073 415.635 M 571 418.132 L 571 423.263 575.039 422.722 C 579.887 422.071, 582 420.510, 582 417.578 C 582 414.314, 580.077 413, 575.300 413 L 571 413 571 418.132 M 610 417.531 C 610 422.798, 611.354 423.774, 616.755 422.399 C 621.022 421.314, 622.551 418.231, 620.368 415.115 C 619.238 413.501, 617.834 413, 614.443 413 L 610 413 610 417.531 M 636.195 417.750 C 636.459 421.865, 636.813 422.544, 638.845 422.832 C 643 423.420, 647 421.089, 647 418.079 C 647 414.304, 645.265 413, 640.245 413 L 635.890 413 636.195 417.750 M 918.195 417.750 L 918.500 422.500 922.902 422.402 C 925.944 422.335, 927.720 421.735, 928.652 420.461 C 931.691 416.305, 928.911 413, 922.374 413 L 917.890 413 918.195 417.750 M 969.540 417.750 L 969.673 422.500 973.988 422.402 C 983.587 422.186, 983.240 413, 973.633 413 L 969.408 413 969.540 417.750 M 1071.195 417.750 L 1071.500 422.500 1075.902 422.402 C 1078.944 422.335, 1080.720 421.735, 1081.652 420.461 C 1084.691 416.305, 1081.911 413, 1075.374 413 L 1070.890 413 1071.195 417.750 M 781.685 417.534 C 779.070 423.019, 779.421 424, 784 424 C 786.200 424, 788 423.667, 788 423.261 C 788 421.940, 784.517 414.008, 783.935 414.004 C 783.625 414.002, 782.612 415.590, 781.685 417.534 M 945.750 418.264 C 944.788 420.605, 944 422.854, 944 423.261 C 944 423.667, 945.800 424, 948 424 C 950.200 424, 952 423.559, 952 423.020 C 952 421.402, 948.832 414, 948.141 414.004 C 947.789 414.006, 946.712 415.923, 945.750 418.264" stroke="none" fill="#f0f6f7" fill-rule="evenodd"/><path d="M -0 340.001 L -0 680.001 800.250 679.751 L 1600.500 679.500 1600.751 339.750 L 1601.003 0 800.501 0 L 0 0 -0 340.001 M 0.494 340.500 C 0.494 527.500, 0.609 604.149, 0.750 510.831 C 0.891 417.513, 0.891 264.513, 0.750 170.831 C 0.609 77.149, 0.494 153.500, 0.494 340.500 M 1009.209 255.995 C 1005.326 256.903, 1001.733 259.863, 1002.402 261.604 C 1002.661 262.281, 1002.169 263.105, 1001.308 263.435 C 999.047 264.303, 1000.211 271.532, 1003.108 274.615 C 1005.900 277.587, 1011.889 279.496, 1015.544 278.578 C 1017.043 278.202, 1019.784 276.335, 1021.635 274.429 C 1024.289 271.696, 1025 270.139, 1025 267.059 C 1025 259.321, 1017.492 254.060, 1009.209 255.995 M 486.242 320.250 L 486.500 380.500 496 380.500 L 505.500 380.500 505.780 368.951 L 506.060 357.403 513.668 350.512 C 521.069 343.809, 521.319 343.676, 522.888 345.598 C 523.774 346.684, 529.412 353.632, 535.415 361.037 C 541.418 368.441, 547.713 375.982, 549.404 377.794 L 552.477 381.088 563.780 380.872 C 572.799 380.700, 574.978 380.384, 574.564 379.306 C 574.279 378.563, 565.710 367.419, 555.523 354.542 C 545.335 341.665, 537 330.767, 537 330.325 C 537 329.882, 544.983 321.528, 554.740 311.760 L 572.479 294 559.990 294.048 L 547.500 294.095 527 313.180 L 506.500 332.265 506.238 296.132 L 505.975 260 495.980 260 L 485.984 260 486.242 320.250 M 601.242 320.250 L 601.500 380.500 611 380.500 L 620.500 380.500 620.758 320.250 L 621.016 260 611 260 L 600.984 260 601.242 320.250 M 1063.785 285.178 L 1063.500 295.355 1056.750 295.109 L 1050 294.862 1050 302.431 L 1050 310 1057 310 L 1064 310 1064 334.462 C 1064 356.482, 1064.200 359.459, 1066.001 364.274 C 1069.779 374.371, 1077.910 379.903, 1090.275 380.788 C 1097.546 381.308, 1108.972 378.944, 1111.001 376.499 C 1112.451 374.752, 1107.939 363.410, 1105.912 363.707 C 1105.136 363.820, 1102.451 364.400, 1099.947 364.995 C 1094.174 366.368, 1088.569 364.682, 1085.596 360.679 C 1083.627 358.030, 1083.482 356.403, 1083.199 333.929 L 1082.899 310 1094.816 310 L 1106.732 310 1106.616 302.750 L 1106.500 295.500 1094.750 295.218 L 1083 294.937 1083 284.968 L 1083 275 1073.535 275 L 1064.070 275 1063.785 285.178 M 680.429 295.309 C 663.207 301.860, 653.388 315.349, 652.265 334 C 651.087 353.572, 659.391 368.224, 676.322 376.449 C 693.630 384.857, 718.540 382.668, 730.507 371.689 L 735.073 367.500 729.404 361.190 L 723.734 354.881 721.117 357.326 C 717.184 361.001, 712.724 362.929, 706.038 363.843 C 690.759 365.933, 679.292 360.602, 674.107 349 L 672.095 344.500 706.298 344 L 740.500 343.500 740.798 338.364 C 741.200 331.454, 738.650 321, 734.803 313.782 C 730.926 306.508, 724.569 300.706, 716 296.623 C 710.063 293.794, 708.505 293.503, 698 293.263 C 688.010 293.035, 685.703 293.303, 680.429 295.309 M 783 295.364 C 775.168 297.721, 767.593 301.231, 766.491 303.014 C 765.988 303.828, 771.803 316.017, 773.598 317.911 C 773.813 318.136, 774.843 317.547, 775.889 316.601 C 776.934 315.654, 780.875 313.792, 784.645 312.461 C 797.108 308.063, 811.803 309.560, 817.345 315.793 C 819.444 318.153, 821.891 324.448, 821.956 327.656 C 821.999 329.775, 821.671 329.820, 803.250 330.241 C 781.126 330.747, 777.095 331.799, 770.008 338.917 C 758.200 350.776, 761.706 369.678, 777.176 377.573 C 790.436 384.339, 810.642 382.299, 820.250 373.223 L 823 370.626 823 375.233 C 823 379.468, 823.222 379.883, 825.750 380.356 C 827.263 380.639, 831.425 380.787, 835 380.685 L 841.500 380.500 841.500 349 L 841.500 317.500 838.883 312 C 832.358 298.283, 821.892 292.956, 801.661 293.054 C 793.075 293.095, 788.770 293.628, 783 295.364 M 915.500 294.399 C 910.177 296.082, 905.910 298.364, 902.120 301.553 L 899 304.178 899 299.089 L 899 294 889.500 294 L 880 294 880 337.565 L 880 381.129 889.750 380.815 L 899.500 380.500 900 353.500 C 900.473 327.958, 900.621 326.274, 902.741 322.308 C 906.902 314.524, 913.789 310.798, 924.119 310.742 C 933.102 310.693, 938.411 313.590, 941.946 320.470 C 944.476 325.393, 944.503 325.705, 944.832 353.209 L 945.165 380.979 954.832 380.739 L 964.500 380.500 964.500 349.500 L 964.500 318.500 961.620 312.266 C 957.973 304.368, 951.295 298.002, 943.662 295.146 C 937.003 292.655, 922.252 292.263, 915.500 294.399 M 1003 337.112 L 1003 380 1012.500 380 L 1022 380 1022 336.970 L 1022 293.941 1012.500 294.083 L 1003 294.225 1003 337.112 M 688.340 310.372 C 680.405 312.973, 674.421 319.389, 672.599 327.250 L 671.962 330 696.481 330 C 723.516 330, 722.410 330.300, 719.652 323.718 C 717.662 318.969, 713.271 314.179, 708.833 311.915 C 703.784 309.339, 693.787 308.587, 688.340 310.372 M 793.091 344.070 C 784.913 345.702, 781.011 352.605, 784.330 359.566 C 786.714 364.566, 791.089 366.481, 800 366.427 C 808.567 366.375, 813.995 364.172, 818.375 358.967 C 821.481 355.275, 822.252 352.687, 821.820 347.405 L 821.500 343.500 809.500 343.345 C 802.900 343.260, 795.516 343.586, 793.091 344.070 M 485 411.481 C 485 411.745, 486.575 414.423, 488.500 417.433 C 490.786 421.006, 492 424.114, 492 426.393 C 492 428.312, 492.450 430.160, 493 430.500 C 493.589 430.864, 494.002 429.760, 494.004 427.809 C 494.006 425.989, 494.953 422.925, 496.109 421 C 497.265 419.075, 499.100 416.038, 500.187 414.250 C 501.274 412.462, 501.715 411, 501.167 411 C 500.620 411, 498.787 413.250, 497.095 416 C 495.403 418.750, 493.785 421, 493.500 421 C 493.215 421, 491.597 418.750, 489.905 416 C 487.306 411.776, 485 409.651, 485 411.481 M 511.901 414.106 C 508.048 418.230, 507.994 422.853, 511.750 427.019 C 519.160 435.239, 532.193 428.347, 529.070 417.860 C 527.717 413.319, 524.292 411, 518.936 411 C 515.601 411, 514.242 411.600, 511.901 414.106 M 540.014 417.250 C 540.032 425.713, 540.745 427.817, 544.200 429.603 C 547.852 431.492, 552.435 430.644, 554.499 427.698 C 556.228 425.230, 556.655 411, 555 411 C 554.422 411, 554 414.159, 554 418.477 C 554 425.343, 553.796 426.087, 551.507 427.587 C 548.223 429.739, 544.224 428.718, 542.965 425.407 C 542.434 424.012, 542 420.199, 542 416.935 C 542 413.645, 541.554 411, 541 411 C 540.439 411, 540.006 413.741, 540.014 417.250 M 569 421.059 C 569 427.510, 569.359 430.896, 570 430.500 C 570.550 430.160, 571 428.559, 571 426.941 C 571 424.288, 571.318 424.001, 574.250 424.007 C 576.839 424.012, 577.984 424.725, 579.879 427.507 C 581.187 429.428, 582.650 431, 583.129 431 C 584.453 431, 584.197 430.186, 581.892 427.068 L 579.784 424.216 581.892 422.108 C 584.548 419.452, 584.593 415.593, 582 413 C 580.485 411.485, 578.667 411, 574.500 411 L 569 411 569 421.059 M 608 420.441 C 608 429.476, 609.528 434.599, 610.185 427.769 C 610.490 424.606, 610.672 424.483, 615.807 423.967 C 620.989 423.446, 622.818 422.201, 623.103 419 C 623.622 413.184, 621.095 411, 613.845 411 L 608 411 608 420.441 M 634 420.441 C 634 425.656, 634.448 430.159, 635 430.500 C 635.595 430.868, 636 429.677, 636 427.559 C 636 424.182, 636.173 424, 639.381 424 C 642.082 424, 643.310 424.717, 645.482 427.566 C 646.978 429.527, 648.462 430.871, 648.780 430.553 C 649.098 430.235, 648.400 428.680, 647.230 427.097 C 645.122 424.247, 645.121 424.201, 647.051 422.454 C 648.230 421.387, 649 419.392, 649 417.402 C 649 412.952, 646.036 411, 639.277 411 L 634 411 634 420.441 M 662.077 413.589 C 655.970 418.727, 658.864 428.713, 666.975 430.495 C 670.470 431.262, 676.455 428.886, 677.920 426.150 C 678.514 425.040, 679 422.342, 679 420.155 C 679 414.920, 674.718 411, 669 411 C 666.321 411, 664.220 411.786, 662.077 413.589 M 705.077 413.589 C 702.591 415.681, 702 416.942, 702 420.155 C 702 425.227, 703.286 427.579, 707.151 429.578 C 710.759 431.444, 716.091 430.817, 718.150 428.286 C 719.342 426.819, 719.267 426.716, 717.500 427.398 C 716.400 427.823, 714.071 428.410, 712.323 428.704 C 705.305 429.884, 701.102 420.071, 706.467 415.031 C 708.622 413.007, 709.602 412.790, 714.217 413.314 C 718.998 413.858, 719.315 413.776, 717.559 412.457 C 714.420 410.101, 708.595 410.629, 705.077 413.589 M 729.823 419.389 C 729.361 431.389, 729.154 431, 736.014 431 C 739.242 431, 742.160 430.550, 742.500 430 C 742.884 429.379, 741.010 429, 737.559 429 L 732 429 732 420 C 732 415.050, 731.583 411, 731.073 411 C 730.564 411, 730.001 414.775, 729.823 419.389 M 752.214 420.750 L 752.500 430.500 759.250 430.796 C 763.262 430.971, 766 430.687, 766 430.096 C 766 429.548, 763.413 428.965, 760.250 428.800 L 754.500 428.500 754.500 425 C 754.500 421.525, 754.536 421.497, 759.500 421.060 L 764.500 420.620 759.500 420.060 C 754.725 419.525, 754.486 419.354, 754.187 416.250 L 753.873 413 759.378 413 C 762.405 413, 765.160 412.550, 765.500 412 C 765.890 411.369, 763.498 411, 759.023 411 L 751.928 411 752.214 420.750 M 778.475 420.392 C 773.568 430.892, 773.533 431, 775.052 431 C 775.631 431, 776.575 429.650, 777.150 428 C 778.137 425.168, 778.497 425, 783.572 425 C 788.625 425, 789.050 425.195, 790.636 428.250 C 791.563 430.038, 792.507 430.955, 792.732 430.289 C 793.273 428.687, 785.597 411.699, 784.108 411.203 C 783.456 410.985, 780.993 415.004, 778.475 420.392 M 803 420.441 C 803 425.656, 803.448 430.159, 804 430.500 C 804.633 430.891, 805 428.316, 805 423.476 C 805 419.272, 805.405 415.983, 805.900 416.167 C 806.396 416.350, 809.352 419.770, 812.470 423.766 C 815.588 427.762, 818.558 430.773, 819.070 430.457 C 820.282 429.708, 820.284 412.294, 819.072 411.544 C 817.729 410.715, 816.829 414.316, 817.016 419.768 C 817.105 422.371, 817.138 424.899, 817.089 425.386 C 817.040 425.873, 814.291 422.835, 810.979 418.636 C 807.668 414.436, 804.518 411, 803.979 411 C 803.409 411, 803 414.947, 803 420.441 M 832 421.059 C 832 427.510, 832.359 430.896, 833 430.500 C 833.552 430.159, 834 425.656, 834 420.441 C 834 414.814, 833.596 411, 833 411 C 832.400 411, 832 415.020, 832 421.059 M 846.667 411.667 C 845.659 412.674, 845.867 429.800, 846.895 430.435 C 848.238 431.265, 848.660 429.168, 848.542 422.250 C 848.483 418.813, 848.725 416, 849.079 416 C 849.433 416, 852.306 419.373, 855.464 423.496 C 858.622 427.618, 861.609 430.742, 862.103 430.437 C 863.319 429.685, 863.261 411, 862.042 411 C 861.515 411, 860.953 414.473, 860.792 418.719 L 860.500 426.437 854.500 418.765 C 848.416 410.985, 847.856 410.477, 846.667 411.667 M 877.077 413.589 C 874.543 415.721, 874 416.917, 874 420.366 C 874 425.575, 875.979 428.508, 880.503 430.001 C 883.146 430.873, 884.855 430.873, 887.500 430 C 890.709 428.941, 891 428.519, 891 424.922 C 891 422.765, 890.550 421, 890 421 C 889.450 421, 889 422.545, 889 424.433 C 889 428.361, 886.899 429.576, 881.979 428.495 C 875.951 427.171, 873.903 419.319, 878.467 415.031 C 880.622 413.007, 881.602 412.790, 886.217 413.314 C 890.998 413.858, 891.315 413.776, 889.559 412.457 C 886.420 410.101, 880.595 410.629, 877.077 413.589 M 916.667 411.667 C 915.635 412.698, 915.880 429.808, 916.935 430.460 C 917.450 430.778, 918.012 429.567, 918.185 427.769 C 918.489 424.613, 918.680 424.482, 923.725 423.975 C 929.495 423.394, 930.561 422.705, 931.486 418.957 C 931.925 417.175, 931.475 415.603, 929.984 413.707 C 928.152 411.377, 927.122 411, 922.594 411 C 919.701 411, 917.033 411.300, 916.667 411.667 M 943.524 418.655 C 939.804 426.707, 938.358 431, 939.366 431 C 939.686 431, 940.647 429.650, 941.500 428 C 942.932 425.231, 943.465 425, 948.428 425 C 953.532 425, 953.859 425.156, 954.876 428.075 C 955.466 429.766, 956.387 430.879, 956.924 430.547 C 958.074 429.836, 950.001 411.834, 948.275 411.258 C 947.636 411.045, 945.513 414.350, 943.524 418.655 M 967.425 412.334 C 966.508 414.726, 967.451 430.026, 968.500 429.757 C 969.050 429.615, 969.500 428.375, 969.500 427 C 969.500 424.967, 970.058 424.437, 972.487 424.161 C 974.926 423.884, 976.068 424.524, 978.722 427.661 C 982.055 431.601, 983.239 430.820, 980.431 426.534 C 978.971 424.307, 979.006 423.994, 980.931 422.069 C 983.553 419.447, 983.552 416.972, 980.927 413.635 C 979.141 411.363, 978.102 411, 973.396 411 C 969.769 411, 967.766 411.448, 967.425 412.334 M 991 412 C 991 412.550, 992.350 413, 994 413 L 997 413 997 421.441 C 997 432.878, 998.838 433.580, 999.211 422.285 L 999.500 413.500 1002.750 413.187 C 1009.007 412.583, 1005.930 411, 998.500 411 C 994.167 411, 991 411.422, 991 412 M 1015.607 412.582 C 1014.656 415.061, 1014.926 428.335, 1015.962 429.972 C 1017.303 432.093, 1017.888 430.035, 1018.226 422 L 1018.500 415.500 1024.461 423.179 C 1027.739 427.402, 1030.777 430.638, 1031.211 430.370 C 1032.354 429.663, 1032.192 411, 1031.042 411 C 1030.515 411, 1029.953 414.473, 1029.792 418.719 L 1029.500 426.437 1023.500 418.765 C 1020.200 414.545, 1017.211 411.071, 1016.857 411.046 C 1016.503 411.021, 1015.941 411.712, 1015.607 412.582 M 1044.214 420.750 L 1044.500 430.500 1051.250 430.796 C 1055.262 430.971, 1058 430.687, 1058 430.096 C 1058 429.548, 1055.412 428.965, 1052.250 428.800 L 1046.500 428.500 1046.500 425 L 1046.500 421.500 1052 420.944 L 1057.500 420.387 1052.061 419.944 C 1046.776 419.513, 1046.612 419.408, 1046.256 416.250 L 1045.889 413 1051.944 413 C 1055.315 413, 1058 412.557, 1058 412 C 1058 411.428, 1054.988 411, 1050.964 411 L 1043.928 411 1044.214 420.750 M 1069 420.441 C 1069 429.476, 1070.528 434.599, 1071.185 427.769 C 1071.455 424.970, 1071.929 424.451, 1074.487 424.161 C 1076.926 423.884, 1078.068 424.524, 1080.722 427.661 C 1082.834 430.158, 1083.975 430.931, 1083.985 429.872 C 1083.993 428.977, 1083.325 427.685, 1082.500 427 C 1080.871 425.648, 1080.460 423, 1081.879 423 C 1082.362 423, 1083.300 421.691, 1083.962 420.091 C 1086.269 414.522, 1082.435 411, 1074.066 411 L 1069 411 1069 420.441 M 1095.697 412.782 C 1092.389 416.438, 1094.508 420.061, 1100.918 421.707 C 1105.238 422.816, 1106.913 425.195, 1104.998 427.503 C 1103.604 429.182, 1099.565 429.201, 1095.750 427.545 C 1092.954 426.332, 1093.726 428.554, 1096.547 429.839 C 1101.947 432.300, 1108 430.006, 1108 425.500 C 1108 422.972, 1104.698 420, 1101.888 420 C 1099.227 420, 1095.792 416.705, 1096.508 414.840 C 1097.338 412.678, 1100.365 411.958, 1104.110 413.032 C 1106.323 413.666, 1107.027 413.577, 1106.738 412.699 C 1106.521 412.040, 1104.330 411.366, 1101.869 411.203 C 1098.502 410.980, 1096.974 411.371, 1095.697 412.782 M 667.500 412.781 C 661.199 414.101, 658.884 421.975, 663.455 426.545 C 668.511 431.602, 677.037 427.974, 676.968 420.795 C 676.917 415.455, 672.516 411.730, 667.500 412.781 M 513.073 415.635 C 510.736 418.605, 510.494 420.796, 512.110 424.343 C 514.239 429.014, 520.132 430.257, 524.365 426.927 C 527.727 424.283, 528.058 418.058, 525 415 C 521.942 411.942, 515.717 412.273, 513.073 415.635 M 571 418.132 L 571 423.263 575.039 422.722 C 579.887 422.071, 582 420.510, 582 417.578 C 582 414.314, 580.077 413, 575.300 413 L 571 413 571 418.132 M 610 417.531 C 610 422.798, 611.354 423.774, 616.755 422.399 C 621.022 421.314, 622.551 418.231, 620.368 415.115 C 619.238 413.501, 617.834 413, 614.443 413 L 610 413 610 417.531 M 636.195 417.750 C 636.459 421.865, 636.813 422.544, 638.845 422.832 C 643 423.420, 647 421.089, 647 418.079 C 647 414.304, 645.265 413, 640.245 413 L 635.890 413 636.195 417.750 M 918.195 417.750 L 918.500 422.500 922.902 422.402 C 925.944 422.335, 927.720 421.735, 928.652 420.461 C 931.691 416.305, 928.911 413, 922.374 413 L 917.890 413 918.195 417.750 M 969.540 417.750 L 969.673 422.500 973.988 422.402 C 983.587 422.186, 983.240 413, 973.633 413 L 969.408 413 969.540 417.750 M 1071.195 417.750 L 1071.500 422.500 1075.902 422.402 C 1078.944 422.335, 1080.720 421.735, 1081.652 420.461 C 1084.691 416.305, 1081.911 413, 1075.374 413 L 1070.890 413 1071.195 417.750 M 781.685 417.534 C 779.070 423.019, 779.421 424, 784 424 C 786.200 424, 788 423.667, 788 423.261 C 788 421.940, 784.517 414.008, 783.935 414.004 C 783.625 414.002, 782.612 415.590, 781.685 417.534 M 945.750 418.264 C 944.788 420.605, 944 422.854, 944 423.261 C 944 423.667, 945.800 424, 948 424 C 950.200 424, 952 423.559, 952 423.020 C 952 421.402, 948.832 414, 948.141 414.004 C 947.789 414.006, 946.712 415.923, 945.750 418.264" stroke="none" fill="#0e4453" fill-rule="evenodd"/></svg>